<svg width="20" height="20" viewBox="0 0 20 20" fill="none" xmlns="http://www.w3.org/2000/svg">
<path d="M10.0001 1.66675C5.40008 1.66675 1.66675 5.40008 1.66675 10.0001C1.66675 14.6001 5.40008 18.3334 10.0001 18.3334C14.6001 18.3334 18.3334 14.6001 18.3334 10.0001C18.3334 5.40008 14.6001 1.66675 10.0001 1.66675ZM7.74175 13.5751L4.75008 10.5834C4.42508 10.2584 4.42508 9.73341 4.75008 9.40841C5.07508 9.08341 5.60008 9.08341 5.92508 9.40841L8.33341 11.8084L14.0667 6.07508C14.3917 5.75008 14.9167 5.75008 15.2417 6.07508C15.5667 6.40008 15.5667 6.92508 15.2417 7.25008L8.91675 13.5751C8.60008 13.9001 8.06675 13.9001 7.74175 13.5751Z" fill="url(#paint0_linear_229_925)"/>
<defs>
<linearGradient id="paint0_linear_229_925" x1="5.81827" y1="1.66675" x2="18.4006" y2="7.48564" gradientUnits="userSpaceOnUse">
<stop stop-color="#724FFF"/>
<stop offset="0.645833" stop-color="#4F60FF"/>
</linearGradient>
</defs>
</svg>
