<svg width="30" height="30" viewBox="0 0 30 30" fill="none" xmlns="http://www.w3.org/2000/svg">
<path fill-rule="evenodd" clip-rule="evenodd" d="M10.5556 15.5C10.5556 12.892 12.6698 10.7778 15.2778 10.7778C17.8858 10.7778 20 12.892 20 15.5C20 18.108 17.8858 20.2222 15.2778 20.2222C12.6698 20.2222 10.5556 18.108 10.5556 15.5ZM15.2778 12.6667C13.713 12.6667 12.4444 13.9352 12.4444 15.5C12.4444 17.0648 13.713 18.3333 15.2778 18.3333C16.8426 18.3333 18.1111 17.0648 18.1111 15.5C18.1111 13.9352 16.8426 12.6667 15.2778 12.6667Z" fill="#6E8091"/>
<path fill-rule="evenodd" clip-rule="evenodd" d="M5.61098 13.7954C5.0832 14.5559 4.88889 15.1508 4.88889 15.5C4.88889 15.8492 5.0832 16.4441 5.61098 17.2046C6.12116 17.9397 6.87949 18.7367 7.83892 19.473C9.76195 20.9489 12.3984 22.1111 15.2778 22.1111C18.1571 22.1111 20.7936 20.9489 22.7166 19.473C23.6761 18.7367 24.4344 17.9397 24.9446 17.2046C25.4724 16.4441 25.6667 15.8492 25.6667 15.5C25.6667 15.1508 25.4724 14.5559 24.9446 13.7954C24.4344 13.0603 23.6761 12.2633 22.7166 11.527C20.7936 10.0511 18.1571 8.88889 15.2778 8.88889C12.3984 8.88889 9.76195 10.0511 7.83892 11.527C6.87949 12.2633 6.12116 13.0603 5.61098 13.7954ZM6.68888 10.0286C8.86771 8.35632 11.8979 7 15.2778 7C18.6576 7 21.6878 8.35632 23.8667 10.0286C24.9582 10.8663 25.8596 11.8009 26.4964 12.7185C27.1156 13.6108 27.5556 14.5899 27.5556 15.5C27.5556 16.4101 27.1156 17.3892 26.4964 18.2815C25.8596 19.1991 24.9582 20.1337 23.8667 20.9714C21.6878 22.6437 18.6576 24 15.2778 24C11.8979 24 8.86771 22.6437 6.68888 20.9714C5.59738 20.1337 4.69598 19.1991 4.05917 18.2815C3.43995 17.3892 3 16.4101 3 15.5C3 14.5899 3.43995 13.6108 4.05917 12.7185C4.69598 11.8009 5.59738 10.8663 6.68888 10.0286Z" fill="#6E8091"/>
</svg>
