<svg width="32" height="33" viewBox="0 0 32 33" fill="current" xmlns="http://www.w3.org/2000/svg">
<path d="M27.9999 10.6868H19.5866L20.8533 4.59352L20.8933 4.16685C20.8933 3.62018 20.6666 3.11352 20.3066 2.75352L18.8933 1.35352L10.1199 10.1402C9.62659 10.6202 9.33325 11.2868 9.33325 12.0202V25.3535C9.33325 26.8202 10.5333 28.0202 11.9999 28.0202H23.9999C25.1066 28.0202 26.0533 27.3535 26.4533 26.3935L30.4799 16.9935C30.5999 16.6868 30.6666 16.3668 30.6666 16.0202V13.3535C30.6666 11.8868 29.4666 10.6868 27.9999 10.6868ZM27.9999 16.0202L23.9999 25.3535H11.9999V12.0202L17.7866 6.23352L16.3066 13.3535H27.9999V16.0202ZM1.33325 12.0202H6.66659V28.0202H1.33325V12.0202Z" fill="current"/>
</svg>
