<svg width="20" height="20" viewBox="0 0 20 20" fill="none" xmlns="http://www.w3.org/2000/svg">
<path fill-rule="evenodd" clip-rule="evenodd" d="M14.1566 0.251051C13.9958 0.0903059 13.7778 0 13.5505 0C13.3232 0 13.1052 0.0903059 12.9444 0.251051L2.43882 10.7566C2.33114 10.8643 2.25409 10.9988 2.2156 11.1461L1.07274 15.5215C0.995837 15.8159 1.0808 16.129 1.29597 16.3442C1.51114 16.5593 1.82426 16.6443 2.11868 16.5674L6.49402 15.4245C6.64137 15.386 6.77581 15.309 6.88349 15.2013L17.3891 4.69572C17.7238 4.36099 17.7238 3.81827 17.3891 3.48354L14.1566 0.251051ZM3.81546 11.8044L13.5505 2.06933L15.5708 4.08963L5.83576 13.8247L3.10117 14.539L3.81546 11.8044Z" fill="white"/>
<path d="M1.42868 18.2857C0.955289 18.2857 0.571533 18.6695 0.571533 19.1429C0.571533 19.6162 0.955289 20 1.42868 20H18.5715C19.0449 20 19.4287 19.6162 19.4287 19.1429C19.4287 18.6695 19.0449 18.2857 18.5715 18.2857H1.42868Z" fill="white"/>
</svg>
