<svg width="29" height="24" viewBox="0 0 29 24" fill="none" xmlns="http://www.w3.org/2000/svg">
<path fill-rule="evenodd" clip-rule="evenodd" d="M13.1229 3.84049C12.9189 3.84049 12.7307 3.94992 12.6297 4.12714L8.5242 11.3336C7.97999 12.2888 7.75161 13.3917 7.8717 14.4845L8.30501 18.4276C8.3821 19.1292 8.93286 19.6849 9.63372 19.7683L12.2313 20.0773C13.9461 20.2813 15.6848 20.1045 17.3235 19.5595C18.1327 19.2903 18.7809 18.6761 19.0932 17.8825L21.1841 12.5689C21.2352 12.439 21.2705 12.3034 21.2893 12.165C21.4479 10.9968 20.4252 10.0113 19.2637 10.2131L15.0725 10.941C13.7486 11.171 12.6051 10.0026 12.8635 8.68398L13.6799 4.51727C13.7486 4.16664 13.4802 3.84049 13.1229 3.84049ZM11.0305 3.21609C11.4588 2.46425 12.2576 2.00001 13.1229 2C14.6387 1.99999 15.7776 3.38365 15.4861 4.87118L14.6696 9.03788C14.6661 9.05574 14.668 9.06664 14.6705 9.07447C14.6735 9.08411 14.6797 9.09542 14.69 9.10589C14.7002 9.11637 14.7114 9.12283 14.721 9.12606C14.7287 9.12869 14.7396 9.1308 14.7575 9.12769L18.9487 8.39975C21.3367 7.985 23.4391 10.0109 23.1131 12.4126C23.0745 12.697 23.0018 12.9757 22.8967 13.2428L20.8058 18.5564C20.2938 19.8575 19.2311 20.8646 17.9043 21.3059C16.0088 21.9363 13.9976 22.1409 12.0139 21.9049L9.41631 21.5959C7.86514 21.4114 6.64616 20.1814 6.47553 18.6287L6.04222 14.6855C5.87975 13.207 6.18873 11.7149 6.92502 10.4225L11.0305 3.21609Z" fill="#6E8091"/>
</svg>
